<svg width="39" height="38" viewBox="0 0 39 38" fill="none" xmlns="http://www.w3.org/2000/svg">
<g clip-path="url(#clip0_101_90098)">
<path d="M26.3182 4.13281C21.7986 4.13281 18.1233 7.80812 18.1233 12.3277C18.1233 12.5993 18.1912 12.865 18.2178 13.1307C12.6295 12.5963 7.68781 9.90407 4.33133 5.78596C4.17487 5.58817 3.9328 5.4819 3.67893 5.49961C3.428 5.51732 3.20365 5.66198 3.07966 5.88043C2.37412 7.09372 1.96969 8.49004 1.96969 9.98968C1.96969 11.8052 2.61914 13.4672 3.62284 14.831C3.428 14.7454 3.21546 14.6982 3.03243 14.5949C2.79922 14.4709 2.51877 14.4768 2.29146 14.6126C2.06415 14.7484 1.92541 14.9934 1.92246 15.2561V15.3506C1.92246 18.1344 3.36306 20.5521 5.48853 22.0341C5.46492 22.0311 5.4413 22.04 5.41769 22.0341C5.1579 21.9898 4.89517 22.0813 4.721 22.2791C4.54683 22.4769 4.49074 22.7514 4.56749 23.0023C5.41178 25.6267 7.56678 27.6311 10.2354 28.3633C8.10996 29.6267 5.64499 30.3706 2.98519 30.3706C2.40954 30.3706 1.85751 30.3411 1.30843 30.2762C0.954183 30.2289 0.614697 30.4356 0.496615 30.7721C0.375581 31.1087 0.508424 31.4836 0.812485 31.6695C4.2221 33.857 8.26937 35.1412 12.6207 35.1412C19.6731 35.1412 25.2053 32.195 28.916 27.9854C32.6267 23.7758 34.5603 18.3086 34.5603 13.2015C34.5603 12.986 34.5426 12.7764 34.5367 12.5639C35.9212 11.5041 37.1581 10.2613 38.1264 8.80886C38.3183 8.52842 38.2976 8.15351 38.0762 7.89373C37.8578 7.63395 37.4888 7.55424 37.1818 7.69889C36.7921 7.87306 36.3375 7.89077 35.9301 8.02952C36.4674 7.31217 36.9279 6.53873 37.2054 5.66788C37.2998 5.36972 37.1965 5.04204 36.9515 4.84721C36.7065 4.65533 36.364 4.63171 36.0954 4.79407C34.8054 5.55865 33.3766 6.09593 31.8681 6.4236C30.4038 5.05385 28.4762 4.13281 26.3182 4.13281ZM26.3182 5.64426C28.2459 5.64426 29.9876 6.46789 31.2068 7.76974C31.3898 7.95867 31.6585 8.03838 31.9153 7.98229C32.9013 7.78745 33.8371 7.5011 34.7493 7.1321C34.2238 7.84059 33.5744 8.44576 32.8127 8.90333C32.4673 9.07159 32.305 9.47012 32.4319 9.83322C32.5559 10.1934 32.9338 10.403 33.3087 10.3203C34.0644 10.2288 34.7375 9.92178 35.4578 9.7299C34.8113 10.4295 34.1028 11.0613 33.3323 11.6192C33.1227 11.7727 33.0076 12.0207 33.0253 12.2805C33.0371 12.5875 33.0489 12.8915 33.0489 13.2015C33.0489 17.9248 31.2363 23.0525 27.7824 26.9699C24.3285 30.8873 19.2569 33.6297 12.6207 33.6297C9.60665 33.6297 6.76087 32.9625 4.18963 31.7876C7.37785 31.5426 10.3181 30.4149 12.6915 28.5522C12.9395 28.3544 13.0369 28.0238 12.9366 27.7227C12.8362 27.4215 12.5587 27.2149 12.2428 27.206C9.7513 27.1618 7.6642 25.7123 6.55127 23.6636C6.5926 23.6636 6.62803 23.6636 6.66935 23.6636C7.41622 23.6636 8.15424 23.5691 8.84206 23.3802C9.17269 23.2828 9.4 22.9758 9.38819 22.6304C9.37639 22.285 9.13137 21.9898 8.79483 21.916C6.10551 21.3728 4.08926 19.1824 3.62284 16.4606C4.38447 16.7233 5.16381 16.93 6.0081 16.9565C6.35349 16.9772 6.6664 16.7617 6.77268 16.434C6.87895 16.1063 6.74906 15.7462 6.45681 15.5632C4.66196 14.3617 3.48114 12.3159 3.48114 9.98968C3.48114 9.12768 3.7055 8.33653 4.0007 7.58081C7.77933 11.7284 13.0694 14.4827 19.0444 14.7838C19.2805 14.7956 19.5108 14.6982 19.6643 14.5181C19.8178 14.3351 19.8768 14.093 19.8237 13.8628C19.7086 13.3727 19.6348 12.8532 19.6348 12.3277C19.6348 8.62583 22.6163 5.64426 26.3182 5.64426Z" fill="black"/>
</g>
<defs>
<clipPath id="clip0_101_90098">
<rect width="37.7863" height="37.7863" fill="white" transform="translate(0.458008)"/>
</clipPath>
</defs>
</svg>
