<svg width="39" height="38" viewBox="0 0 39 38" fill="none" xmlns="http://www.w3.org/2000/svg">
<path d="M19.3574 6.80176C14.3684 6.80176 9.68352 7.17962 7.18904 7.70804C5.52703 8.0859 4.08939 9.21949 3.78828 10.9582C3.48717 12.7708 3.18311 15.4926 3.18311 18.8934C3.18311 22.2941 3.48422 24.9392 3.86208 26.8285C4.16614 28.4905 5.60084 29.7008 7.26284 30.0787C9.91083 30.6071 14.4422 30.985 19.4312 30.985C24.4202 30.985 28.9516 30.6071 31.5966 30.0787C33.2616 29.7008 34.6963 28.5672 34.9974 26.8285C35.3014 24.9392 35.6793 22.2203 35.7531 18.8196C35.7531 15.4188 35.3752 12.697 34.9974 10.8077C34.6963 9.14569 33.2616 7.93535 31.5966 7.55748C28.9516 7.17962 24.3434 6.80176 19.3574 6.80176ZM19.3574 8.31321C24.798 8.31321 29.1789 8.76487 31.2955 9.14273C32.4291 9.4468 33.3354 10.2025 33.4859 11.1856C33.9405 13.6033 34.2416 16.1745 34.2416 18.8196C34.1678 22.0668 33.79 24.7119 33.4859 26.6012C33.2616 28.0359 31.7501 28.4905 31.2955 28.644C28.5737 29.1724 24.0394 29.5473 19.505 29.5473C14.9706 29.5473 10.3625 29.2462 7.71746 28.644C6.58387 28.3399 5.67759 27.5842 5.52703 26.6012C4.92186 24.4845 4.69456 21.689 4.69456 18.8934C4.69456 15.4158 4.99862 12.8476 5.29973 11.2623C5.52703 9.82466 7.11229 9.37004 7.49015 9.21949C9.98463 8.69107 14.5957 8.31321 19.3574 8.31321ZM15.2747 12.8476V24.9392L25.8549 18.8934L15.2747 12.8476ZM16.7862 15.4188L22.832 18.8934L16.7862 22.3679V15.4188Z" fill="black"/>
</svg>
