<svg width="56" height="32" viewBox="0 0 56 32" fill="none" xmlns="http://www.w3.org/2000/svg">
<g clip-path="url(#clip0_101_90104)">
<path d="M32.4215 5.8086C32.4215 7.45261 32.416 9.10213 32.4215 10.7461C32.427 11.7667 32.4436 12.7873 32.4711 13.808C32.4932 14.4976 32.5373 15.1872 32.576 15.8712C32.598 16.2298 32.6201 16.5829 32.6642 16.9415C32.7028 17.278 32.769 17.6145 32.8242 17.9511C32.8518 18.1331 32.8849 18.3207 32.9235 18.5027C32.9456 18.591 32.9732 18.6848 33.0228 18.762C33.0449 18.7951 33.1221 18.8062 33.1718 18.8172C33.2049 18.8227 33.2435 18.7951 33.2766 18.7951C33.7786 18.7786 34.2862 18.7455 34.7882 18.751C35.1799 18.7565 35.5716 18.7951 35.9578 18.8393C36.3494 18.8834 36.7411 18.9386 37.1328 19.0103C37.4804 19.071 37.8279 19.1592 38.1755 19.2365C38.4458 19.2972 38.7217 19.3523 38.992 19.4296C39.3175 19.5233 39.6319 19.6392 39.9519 19.7495C40.1395 19.8157 40.3326 19.8819 40.5146 19.9592C40.7463 20.0585 40.9725 20.1633 41.1987 20.2736C41.3421 20.3398 41.4801 20.4171 41.6125 20.4998C42.0538 20.7646 42.4731 21.057 42.7103 21.5315C42.8427 21.7963 42.8703 22.0942 42.8317 22.3866C42.7489 23.0155 42.4345 23.5285 42.0042 23.9754C41.6732 24.3174 41.3035 24.6043 40.8898 24.836C40.5753 25.0126 40.2664 25.1946 39.9464 25.3436C39.6154 25.498 39.2678 25.6139 38.9258 25.7408C38.7162 25.818 38.501 25.8952 38.2858 25.9559C38.0155 26.0332 37.7452 26.1049 37.4749 26.1766C37.2652 26.2318 37.0501 26.2925 36.8404 26.3421C36.6749 26.3807 36.5039 26.4138 36.3329 26.4469C36.035 26.5021 35.7426 26.5628 35.4447 26.6124C35.1247 26.6621 34.7992 26.6952 34.4793 26.7338C34.1041 26.7779 33.729 26.8276 33.3538 26.8662C33.1883 26.8828 33.0228 26.8938 32.8628 26.9103C32.4436 26.9379 32.0243 26.971 31.605 26.9986C31.5167 27.0041 31.434 26.9986 31.3457 27.0041C31.274 27.0096 31.2354 26.9765 31.2299 26.9048C31.2243 26.8662 31.2188 26.8276 31.2188 26.789C31.2023 26.48 31.1802 26.1711 31.1637 25.8621C31.1471 25.5973 31.1416 25.3325 31.1195 25.0622C31.0699 24.3781 31.0147 23.6996 30.9595 23.0155C30.9264 22.5962 30.8989 22.1824 30.8658 21.7632C30.8437 21.4708 30.8161 21.1729 30.7885 20.8805C30.7499 20.4502 30.7113 20.0199 30.6671 19.5896C30.6561 19.4627 30.634 19.3413 30.6175 19.2144C30.6009 19.0765 30.5954 18.9441 30.5789 18.8062C30.5623 18.6572 30.5347 18.5083 30.5127 18.3593C30.5127 18.3483 30.5072 18.3372 30.5072 18.3262C30.4741 18.0173 30.4465 17.7083 30.4079 17.4049C30.3637 17.0684 30.3141 16.7319 30.2699 16.4008C30.2203 16.0533 30.1817 15.7057 30.1265 15.3637C30.0769 15.0547 30.0217 14.7403 29.9665 14.4313C29.9279 14.2107 29.9003 13.99 29.8672 13.7693C29.812 13.4383 29.7569 13.1073 29.7017 12.7763C29.6631 12.5391 29.6245 12.3019 29.5859 12.0646C29.5362 11.7888 29.481 11.5074 29.4259 11.2316C29.3928 11.0551 29.3597 10.8785 29.3321 10.702C29.2769 10.4096 29.2217 10.1172 29.1721 9.81931C29.128 9.5876 29.0949 9.3559 29.0452 9.12971C28.9956 8.88145 28.9349 8.6332 28.8852 8.38494C28.8466 8.20289 28.819 8.02635 28.7859 7.8443C28.7363 7.60156 28.6866 7.35882 28.637 7.11608C28.5928 6.88437 28.5487 6.65819 28.499 6.42648C28.4825 6.3327 28.5266 6.28856 28.6094 6.25546C29.0893 6.07341 29.5693 5.89135 30.0548 5.71481C30.5734 5.52173 31.0919 5.33967 31.616 5.14659C31.8588 5.05832 32.1015 4.96453 32.3443 4.87075C32.4436 4.83213 32.4711 4.84868 32.4656 4.96453C32.4656 5.19072 32.4546 5.41691 32.4546 5.64861C32.4546 5.70378 32.4546 5.75895 32.4546 5.8086C32.4436 5.8086 32.4325 5.8086 32.4215 5.8086ZM35.0254 21.1232C34.8213 21.1122 34.7992 21.1398 34.8047 21.2832C34.8047 21.2998 34.8103 21.3218 34.8103 21.3384C34.8599 21.7025 34.9096 22.0611 34.9592 22.4252C34.9813 22.5741 35.0033 22.7231 35.0254 22.872C35.0751 23.2086 35.1247 23.5506 35.1689 23.8871C35.2075 24.1685 35.2406 24.4498 35.2792 24.7312C35.2957 24.836 35.373 24.8636 35.4557 24.8029C35.6488 24.665 35.8364 24.5216 36.0295 24.3836C36.3439 24.1575 36.6529 23.9258 36.9673 23.6996C37.2873 23.4623 37.6073 23.2306 37.9273 22.9934C38.1038 22.861 38.2858 22.7286 38.4624 22.5907C38.5231 22.5466 38.5231 22.5024 38.4513 22.4748C38.1921 22.359 37.9383 22.2376 37.679 22.1218C37.4252 22.0114 37.1604 21.9066 36.9066 21.8018C36.7356 21.7301 36.5646 21.6528 36.3881 21.5866C36.0791 21.4708 35.7702 21.3604 35.4557 21.2556C35.3068 21.1949 35.1358 21.1563 35.0254 21.1232Z" fill="black"/>
<path d="M7.02202 8.69379C7.02202 9.33925 7.01099 9.98472 7.02202 10.6302C7.04961 11.9487 7.07719 13.2727 7.12132 14.5912C7.13787 15.165 7.18201 15.7443 7.22063 16.318C7.24269 16.6214 7.27579 16.9193 7.3089 17.2172C7.33096 17.4269 7.35303 17.6365 7.39716 17.8461C7.45233 18.122 7.51853 18.3923 7.59025 18.6626C7.62887 18.8061 7.67852 18.8281 7.82747 18.795C7.83851 18.795 7.84954 18.7895 7.86057 18.7895C8.41225 18.773 8.96393 18.7509 9.5101 18.7454C9.7749 18.7454 10.0452 18.7619 10.3045 18.795C10.6466 18.8337 10.9831 18.8943 11.3251 18.9495C11.7113 19.0102 12.092 19.0764 12.4726 19.1481C12.6933 19.1922 12.914 19.2529 13.1291 19.3081C13.3719 19.3688 13.6146 19.435 13.8573 19.5067C14.0725 19.5674 14.2932 19.6391 14.5028 19.7108C14.729 19.7881 14.9552 19.8708 15.1758 19.9646C15.3689 20.0473 15.562 20.1467 15.7496 20.2349C16.1082 20.4059 16.4392 20.6156 16.7536 20.8583C16.9688 21.0293 17.1674 21.2224 17.2943 21.4652C17.4377 21.741 17.4819 22.0499 17.4432 22.3589C17.3936 22.734 17.2667 23.0816 17.0626 23.4016C16.8474 23.7326 16.5826 24.0194 16.2847 24.2732C15.8213 24.6704 15.2972 24.9849 14.751 25.2442C14.3649 25.4262 13.9566 25.5752 13.5539 25.7296C13.3222 25.8179 13.0905 25.8951 12.8533 25.9669C12.6105 26.0386 12.3678 26.0993 12.1251 26.16C11.8878 26.2206 11.6506 26.2868 11.4134 26.3365C11.2203 26.3806 11.0272 26.4027 10.8286 26.4413C10.6024 26.4854 10.3817 26.5351 10.15 26.5682C9.81904 26.6179 9.48803 26.6675 9.15702 26.7061C8.75981 26.7558 8.35709 26.8054 7.95436 26.8496C7.75576 26.8716 7.56267 26.8827 7.36406 26.8937C6.9172 26.9213 6.46483 26.9544 6.01797 26.982C5.85246 26.993 5.85246 26.982 5.84143 26.8165C5.81384 26.3475 5.78074 25.8841 5.75316 25.4152C5.72557 25.0125 5.69799 24.6097 5.67041 24.2125C5.63179 23.716 5.59317 23.214 5.55455 22.7175C5.52697 22.392 5.51042 22.061 5.48284 21.7355C5.4387 21.2279 5.38905 20.7259 5.3394 20.2184C5.31733 19.9756 5.29527 19.7384 5.26768 19.4957C5.22906 19.1702 5.18493 18.8502 5.14631 18.5247C5.10769 18.2047 5.08563 17.8793 5.04701 17.5593C5.01391 17.2614 4.96426 16.9579 4.92564 16.66C4.87599 16.2904 4.82634 15.9263 4.77117 15.5567C4.72152 15.2422 4.66083 14.9278 4.61118 14.6133C4.57257 14.3706 4.54498 14.1278 4.51188 13.8906C4.47326 13.6313 4.42361 13.372 4.37948 13.1127C4.31879 12.7376 4.25259 12.368 4.19191 11.9928C4.14777 11.7115 4.10364 11.4356 4.05399 11.1543C3.97675 10.7571 3.894 10.3599 3.81676 9.95713C3.77263 9.7144 3.73401 9.47166 3.68988 9.23443C3.64574 8.99721 3.59058 8.75999 3.54092 8.51725C3.50231 8.32968 3.46921 8.13659 3.43059 7.94902C3.38094 7.70077 3.33129 7.45803 3.28164 7.20977C3.22647 6.93945 3.16578 6.66912 3.11613 6.39329C3.09406 6.28847 3.1713 6.25537 3.24853 6.22778C3.54644 6.11745 3.83883 6.00711 4.13674 5.89677C4.41258 5.79195 4.68842 5.69265 4.96426 5.59335C5.1739 5.51611 5.38905 5.43336 5.59869 5.35061C5.88005 5.24579 6.15588 5.14649 6.43724 5.04167C6.55309 4.99754 6.66343 4.9534 6.77928 4.91479C6.83445 4.89272 6.89514 4.87065 6.95582 4.85962C7.06064 4.83755 7.08822 4.86513 7.08271 4.96995C7.07167 5.27889 7.06616 5.58783 7.05512 5.90229C7.04961 6.13951 7.04961 6.37122 7.04961 6.60844C7.04961 7.29804 7.04961 7.98764 7.04961 8.67724C7.03305 8.69379 7.02754 8.69379 7.02202 8.69379ZM9.60388 21.1231C9.41631 21.1176 9.38873 21.1507 9.40528 21.2886C9.42183 21.4045 9.44389 21.5203 9.46044 21.6417C9.48251 21.7741 9.49355 21.912 9.51561 22.0444C9.55423 22.2872 9.59285 22.5244 9.63146 22.7671C9.6756 23.0706 9.71422 23.3795 9.75283 23.6884C9.80249 24.036 9.85765 24.3835 9.9073 24.7366C9.92386 24.8359 10.0011 24.869 10.0838 24.8139C10.1114 24.7973 10.1335 24.7697 10.1611 24.7532C10.5528 24.4663 10.9389 24.1794 11.3306 23.8926C11.6285 23.6719 11.9265 23.4457 12.2299 23.225C12.5002 23.0264 12.7705 22.8388 13.0408 22.6347C13.1512 22.552 13.1401 22.5078 13.0243 22.4527C12.9746 22.4306 12.925 22.4085 12.8753 22.3865C12.583 22.2651 12.2961 22.1437 12.0037 22.0224C11.6727 21.8789 11.3417 21.73 11.0051 21.5976C10.6797 21.4707 10.3431 21.3548 10.0121 21.2445C9.86317 21.1783 9.7087 21.1507 9.60388 21.1231Z" fill="black"/>
<path d="M47.4435 7.35352C47.6311 7.37558 47.8242 7.39213 48.0117 7.4142C48.111 7.42523 48.1607 7.50247 48.1662 7.59625C48.2048 8.07622 48.2379 8.55066 48.271 9.03062C48.3041 9.56023 48.3372 10.0898 48.3703 10.6195C48.3979 11.0277 48.4255 11.4359 48.4586 11.8442C48.5027 12.3793 48.5469 12.9144 48.5855 13.4441C48.602 13.6427 48.6131 13.8468 48.6241 14.0454C48.6517 14.426 48.6903 14.8067 48.7179 15.1874C48.7565 15.6563 48.7841 16.1252 48.8227 16.5886C48.8503 16.9914 48.8779 17.3941 48.911 17.7968C48.9385 18.2106 48.9661 18.6188 48.9992 19.0326C49.0434 19.5622 49.0875 20.0863 49.1316 20.6159C49.1813 21.2669 49.2254 21.9179 49.2806 22.5688C49.3247 23.1481 49.3744 23.7274 49.424 24.3066C49.4351 24.428 49.413 24.4556 49.2916 24.4776C48.7951 24.5549 48.2986 24.5659 47.8021 24.4832C47.6918 24.4611 47.6531 24.4114 47.6476 24.3066C47.6035 23.7384 47.5538 23.1702 47.5042 22.6019C47.4876 22.4364 47.4711 22.2709 47.46 22.1054C47.4269 21.7137 47.3994 21.322 47.3607 20.9359C47.3166 20.5056 47.2504 20.0808 47.2063 19.6504C47.1621 19.2588 47.129 18.8615 47.0849 18.4699C47.0297 17.9623 46.9691 17.4548 46.9084 16.9417C46.8808 16.7045 46.8532 16.4728 46.8201 16.2356C46.7704 15.899 46.7153 15.568 46.6711 15.2315C46.6325 14.9612 46.6049 14.6909 46.5663 14.4205C46.5167 14.0564 46.456 13.6923 46.4063 13.3282C46.3622 13.0193 46.3291 12.7103 46.2795 12.4014C46.2353 12.1145 46.1746 11.8276 46.1305 11.5408C46.0919 11.3091 46.0643 11.0718 46.0257 10.8346C45.976 10.5202 45.9153 10.2112 45.8657 9.89676C45.8216 9.64298 45.7885 9.38369 45.7443 9.12992C45.6947 8.87063 45.6395 8.61134 45.5899 8.35205C45.5457 8.12035 45.5071 7.88313 45.4685 7.65142C45.4575 7.58522 45.4795 7.54109 45.5568 7.53005C45.6064 7.52454 45.6561 7.50247 45.7057 7.50247C46.1581 7.45833 46.616 7.41972 47.0684 7.3811C47.1952 7.37007 47.3221 7.3811 47.449 7.3811C47.4435 7.37007 47.4435 7.36455 47.4435 7.35352Z" fill="black"/>
<path d="M22.1103 7.3584C22.2372 7.36943 22.4248 7.38598 22.6124 7.41357C22.7227 7.43012 22.7668 7.51287 22.7779 7.61217C22.7944 7.76664 22.811 7.92111 22.8165 8.07558C22.8496 8.64933 22.8827 9.21756 22.9158 9.7913C22.9434 10.2216 22.9765 10.6519 23.0096 11.0822C23.0482 11.6008 23.0978 12.1139 23.1364 12.6325C23.1971 13.3883 23.2523 14.1441 23.3075 14.8943C23.3626 15.6115 23.4123 16.3232 23.4619 17.0404C23.4895 17.4541 23.5171 17.8734 23.5557 18.2872C23.6054 18.8664 23.6661 19.4402 23.7102 20.0194C23.7543 20.5822 23.7874 21.1393 23.8316 21.7021C23.8702 22.2317 23.9198 22.7668 23.9585 23.2964C23.9805 23.5888 23.9916 23.8812 24.0081 24.1736C24.0136 24.2232 24.0302 24.2729 24.0412 24.3225C24.0633 24.4163 24.0302 24.4605 23.9309 24.477C23.5061 24.5487 23.0868 24.5708 22.6565 24.5156C22.5627 24.5046 22.4689 24.4991 22.3807 24.4715C22.342 24.4605 22.2924 24.4108 22.2924 24.3777C22.2538 24.0136 22.2262 23.644 22.1876 23.2799C22.1489 22.8661 22.1048 22.4579 22.0607 22.0441C22.0441 21.8731 22.0331 21.6965 22.0165 21.5255C21.9834 21.1228 21.9559 20.7256 21.9117 20.3229C21.8676 19.9257 21.8069 19.534 21.7573 19.1368C21.7131 18.7451 21.6855 18.3534 21.6359 17.9672C21.5862 17.5645 21.5255 17.1617 21.4759 16.759C21.4373 16.4501 21.4097 16.1356 21.3711 15.8267C21.3269 15.4846 21.2663 15.1481 21.2166 14.8061C21.2166 14.7895 21.2111 14.7785 21.2111 14.7619C21.1725 14.4475 21.1394 14.133 21.0952 13.8186C21.0401 13.4103 20.9794 13.0076 20.9132 12.5994C20.8746 12.3345 20.8249 12.0753 20.7863 11.816C20.7422 11.5125 20.7035 11.2146 20.6484 10.9112C20.5711 10.4699 20.4884 10.0285 20.4112 9.58167C20.367 9.31686 20.3339 9.04654 20.2843 8.78173C20.2401 8.54451 20.1905 8.3128 20.1408 8.07558C20.1132 7.93214 20.0801 7.79423 20.0636 7.65079C20.0581 7.61769 20.0912 7.557 20.1188 7.54597C20.185 7.51839 20.2622 7.50735 20.3394 7.50184C20.7808 7.4577 21.2276 7.41908 21.669 7.38047C21.8014 7.36943 21.9283 7.36943 22.1103 7.3584Z" fill="black"/>
<path d="M53.3189 21.6748C53.3189 22.6292 53.3244 23.5781 53.3189 24.5325C53.3189 24.891 53.2968 25.2441 53.2913 25.6027C53.2913 25.6799 53.2527 25.7186 53.181 25.7241C53.1258 25.7296 53.0651 25.7296 53.01 25.7296C52.6183 25.7462 52.2266 25.7627 51.8349 25.7848C51.6859 25.7903 51.5425 25.8068 51.3935 25.8179C51.2998 25.8289 51.2611 25.7903 51.2501 25.691C51.2225 25.3489 51.1949 25.0124 51.1563 24.6704C51.1067 24.2345 51.046 23.7987 51.0018 23.3629C50.9522 22.8995 50.9246 22.4306 50.8805 21.9616C50.8529 21.6141 50.8198 21.2665 50.7867 20.919C50.7591 20.6155 50.7315 20.3176 50.7039 20.0142C50.6708 19.6611 50.6377 19.3136 50.6102 18.9605C50.555 18.2488 50.4998 17.5316 50.4502 16.82C50.4391 16.6214 50.4502 16.6269 50.6543 16.6103C51.0846 16.5772 51.5149 16.5166 51.9452 16.5C52.2873 16.489 52.6293 16.511 52.9713 16.5331C53.1424 16.5441 53.1755 16.6986 53.192 16.8365C53.2141 17.0186 53.2306 17.2006 53.2417 17.3882C53.2637 17.7689 53.2858 18.1495 53.2913 18.5302C53.3134 19.5784 53.3244 20.6211 53.341 21.6692C53.3299 21.6748 53.3244 21.6748 53.3189 21.6748Z" fill="black"/>
<path d="M20.9299 24.9467C20.9354 25.2666 20.9299 25.217 20.6154 25.2721C20.2458 25.3383 19.8707 25.388 19.501 25.4376C19.341 25.4597 19.1811 25.4763 19.0211 25.4928C18.9383 25.5039 18.9107 25.4487 18.8997 25.3825C18.8501 25.1232 18.8059 24.8584 18.7563 24.5991C18.7176 24.406 18.6735 24.2129 18.6349 24.0198C18.5852 23.7826 18.5411 23.5454 18.497 23.3082C18.4473 23.0654 18.4032 22.8282 18.3535 22.5855C18.3039 22.3372 18.2653 22.089 18.2156 21.8462C18.177 21.6476 18.1329 21.4545 18.0943 21.2559C18.0501 21.0297 18.0005 20.8035 17.9618 20.5774C17.8901 20.1857 17.8294 19.794 17.7577 19.4078C17.7081 19.154 17.6474 18.9058 17.6033 18.652C17.5646 18.4313 17.5371 18.2051 17.4984 17.9845C17.4598 17.7472 17.4157 17.51 17.3771 17.2728C17.3385 17.0466 17.2998 16.8259 17.2667 16.5997C17.2447 16.4673 17.2667 16.4453 17.3991 16.4177C17.7081 16.357 18.017 16.3074 18.3204 16.2356C18.6735 16.1474 19.0376 16.1308 19.3962 16.1032C19.5176 16.0977 19.639 16.0977 19.7548 16.1088C19.8872 16.1198 19.981 16.2191 20.0031 16.368C20.0693 16.7984 20.141 17.2287 20.2017 17.659C20.2513 17.9955 20.2955 18.332 20.3341 18.6741C20.3837 19.1099 20.4168 19.5457 20.4665 19.9815C20.5216 20.5332 20.5878 21.0849 20.643 21.6366C20.6871 22.0834 20.7147 22.5303 20.7478 22.9716C20.7809 23.3854 20.803 23.7936 20.8416 24.2074C20.8637 24.4612 20.9023 24.7039 20.9299 24.9467Z" fill="black"/>
<path d="M42.666 16.6379C42.6605 16.4558 42.6549 16.4503 42.8315 16.4172C43.1128 16.3565 43.3997 16.3124 43.6756 16.2407C44.0176 16.1524 44.3707 16.1524 44.7182 16.1028C44.9003 16.0807 45.0768 16.0862 45.2423 16.1579C45.2975 16.18 45.3527 16.2517 45.3692 16.3124C45.5237 16.9082 45.6064 17.5206 45.6616 18.1329C45.6947 18.5136 45.7499 18.8943 45.7885 19.2749C45.8381 19.7383 45.8768 20.1962 45.9209 20.6596C45.9761 21.2058 46.0423 21.752 46.0919 22.2926C46.136 22.7615 46.1581 23.236 46.1967 23.7049C46.2243 24.1076 46.2574 24.5159 46.2905 24.9186C46.2905 24.9517 46.3071 24.9793 46.3181 25.0124C46.3457 25.1282 46.2905 25.2055 46.1691 25.222C45.8381 25.2662 45.5071 25.3103 45.1761 25.3544C44.9334 25.3875 44.6962 25.4317 44.4534 25.4758C44.3431 25.4923 44.31 25.4648 44.2879 25.3599C44.2438 25.1337 44.1831 24.902 44.139 24.6759C44.1114 24.5435 44.1003 24.4055 44.0728 24.2731C44.0176 23.9807 43.9514 23.6883 43.8962 23.396C43.8135 22.9767 43.7418 22.5519 43.659 22.1326C43.6094 21.8788 43.5487 21.6196 43.499 21.3658C43.4604 21.1837 43.4328 21.0072 43.4052 20.8251C43.3611 20.5934 43.3225 20.3672 43.2783 20.1355C43.2232 19.8431 43.1735 19.5563 43.1184 19.2639C43.0687 18.9991 43.008 18.7288 42.9584 18.4639C42.9253 18.304 42.8977 18.1385 42.8701 17.9785C42.8039 17.5757 42.7377 17.1675 42.677 16.7648C42.6715 16.7317 42.6715 16.6875 42.666 16.6379Z" fill="black"/>
<path d="M27.9142 21.7686C27.9142 22.7892 27.9142 23.8043 27.9142 24.8249C27.9142 25.0897 27.8921 25.349 27.8866 25.6138C27.8866 25.68 27.8535 25.7131 27.7928 25.7242C27.7652 25.7297 27.7432 25.7297 27.7156 25.7352C27.3184 25.7518 26.9157 25.7738 26.5184 25.7904C26.3529 25.8014 26.1874 25.818 26.0219 25.8235C25.8785 25.829 25.8564 25.8069 25.8454 25.669C25.8288 25.4704 25.8178 25.2663 25.7957 25.0622C25.7682 24.7422 25.7351 24.4167 25.702 24.0967C25.6633 23.705 25.6137 23.3133 25.5751 22.9161C25.5089 22.2541 25.4427 21.5976 25.382 20.9356C25.3323 20.417 25.2937 19.8929 25.2496 19.3743C25.2165 19.0102 25.1889 18.6461 25.1613 18.2765C25.1282 17.8131 25.0951 17.3497 25.062 16.8918C25.062 16.8587 25.062 16.8256 25.062 16.7925C25.073 16.6435 25.0951 16.627 25.2496 16.6159C25.6964 16.5773 26.1378 16.5277 26.5846 16.5001C26.8329 16.4835 27.0812 16.5056 27.3294 16.5166C27.4397 16.5222 27.5501 16.5387 27.6549 16.5773C27.7046 16.5939 27.7652 16.6601 27.7763 16.7152C27.8204 16.9304 27.8645 17.1456 27.8701 17.3662C27.9032 18.8337 27.9252 20.3012 27.9528 21.7686C27.9363 21.7686 27.9252 21.7686 27.9142 21.7686Z" fill="black"/>
<path d="M53.0267 13.6425C53.0267 14.1721 53.0267 14.7017 53.0267 15.2314C53.0267 15.3417 52.9936 15.3748 52.8833 15.3582C52.5578 15.3251 52.2323 15.2865 51.9068 15.2534C51.8185 15.2424 51.813 15.1872 51.813 15.121C51.802 14.7735 51.7965 14.4259 51.7854 14.0839C51.7689 13.3722 51.7578 12.655 51.7413 11.9434C51.7358 11.7834 51.7468 11.7723 51.9013 11.7834C52.2157 11.7999 52.5357 11.8165 52.8502 11.8385C53.0212 11.8496 53.0543 11.8771 53.0543 12.0482C53.0598 12.5778 53.0543 13.1074 53.0543 13.637C53.0488 13.6425 53.0377 13.6425 53.0267 13.6425Z" fill="black"/>
<path d="M26.353 13.1292C26.353 12.7264 26.353 12.3292 26.353 11.9265C26.353 11.7886 26.3641 11.772 26.502 11.7831C26.8164 11.7996 27.1309 11.8051 27.4398 11.8438C27.644 11.8658 27.6826 11.8769 27.6826 12.092C27.666 13.085 27.6605 14.0781 27.6329 15.0656C27.6219 15.4242 27.655 15.369 27.335 15.3414C27.0647 15.3193 26.7889 15.2862 26.5185 15.2531C26.4468 15.2476 26.4358 15.198 26.4303 15.1373C26.4192 14.8228 26.3972 14.5028 26.3916 14.1884C26.3861 13.8353 26.3916 13.4822 26.3916 13.1292C26.3751 13.1292 26.3641 13.1292 26.353 13.1292Z" fill="black"/>
<path d="M18.756 11.458C18.916 11.458 19.0815 11.458 19.2415 11.458C19.3794 11.458 19.407 11.4801 19.4236 11.618C19.4567 11.9269 19.4842 12.2359 19.5118 12.5448C19.5615 13.1075 19.6056 13.6647 19.6497 14.2274C19.6608 14.3764 19.6608 14.5309 19.6718 14.6798C19.6718 14.7129 19.6773 14.7515 19.6884 14.7846C19.7215 14.9226 19.6994 14.9501 19.556 14.9501C19.236 14.9446 18.916 14.9391 18.596 14.9391C18.5243 14.9391 18.4967 14.906 18.4912 14.8453C18.4691 14.7019 18.4416 14.5529 18.425 14.4095C18.3809 14.0399 18.3423 13.6647 18.3036 13.2896C18.2761 13.0248 18.2485 12.76 18.2209 12.4952C18.1933 12.2138 18.1602 11.9325 18.1326 11.6511C18.1326 11.6345 18.1271 11.6125 18.1271 11.5959C18.105 11.4966 18.1216 11.469 18.2319 11.4635C18.3974 11.4635 18.574 11.4635 18.756 11.458C18.756 11.4635 18.756 11.4635 18.756 11.458Z" fill="black"/>
<path d="M44.1391 11.458C44.3046 11.458 44.4701 11.458 44.6356 11.458C44.7791 11.458 44.8122 11.4966 44.8232 11.6345C44.8729 12.269 44.928 12.8979 44.9777 13.5323C45.0108 13.9571 45.0494 14.3819 45.0825 14.8067C45.0935 14.9281 45.0659 14.9557 44.9446 14.9501C44.7404 14.9391 44.5418 14.917 44.3377 14.9115C44.2439 14.906 44.1446 14.9226 44.0509 14.9391C43.9184 14.9612 43.8743 14.9336 43.8578 14.8012C43.8136 14.4812 43.775 14.1557 43.7364 13.8357C43.7033 13.5654 43.6923 13.2951 43.6481 13.0303C43.5985 12.7545 43.5764 12.4841 43.5599 12.2083C43.5488 12.0042 43.5102 11.8056 43.4826 11.6014C43.4716 11.5021 43.5157 11.4635 43.6095 11.4635C43.7971 11.469 43.9681 11.4635 44.1391 11.458C44.1391 11.4635 44.1391 11.4635 44.1391 11.458Z" fill="black"/>
<path d="M25.5418 11.833C25.5804 11.833 25.6135 11.833 25.6521 11.833C25.7459 11.8274 25.7901 11.8716 25.7956 11.9654C25.8287 12.655 25.8563 13.3501 25.8949 14.0397C25.9114 14.4038 25.95 14.7679 25.9721 15.1265C25.9831 15.2975 25.9666 15.3085 25.7901 15.3141C25.5694 15.3251 25.3487 15.3416 25.1336 15.3527C24.9791 15.3637 24.946 15.3416 24.9294 15.1927C24.8853 14.7789 24.8467 14.3596 24.8025 13.9459C24.775 13.6425 24.7419 13.3446 24.7143 13.0411C24.6867 12.7818 24.6591 12.5281 24.626 12.2688C24.6205 12.2026 24.5874 12.1419 24.5984 12.0812C24.6039 12.0371 24.6536 11.9654 24.6922 11.9598C24.9791 11.9047 25.266 11.8605 25.5528 11.8164C25.5418 11.8219 25.5418 11.8274 25.5418 11.833Z" fill="black"/>
<path d="M43.4107 14.8451C43.4163 15.0492 43.4052 15.0547 43.1956 15.0768C42.9749 15.0989 42.7542 15.1375 42.5336 15.1706C42.4453 15.1816 42.4177 15.154 42.4012 15.0657C42.3294 14.6961 42.2412 14.3265 42.1639 13.9569C42.1198 13.7472 42.0867 13.5321 42.0426 13.3224C41.9929 13.0907 41.9322 12.8645 41.8881 12.6328C41.8384 12.3956 41.7998 12.1584 41.7612 11.9212C41.7557 11.8936 41.7998 11.8439 41.8274 11.8329C42.1308 11.7502 42.4287 11.6784 42.7322 11.6012C42.8756 11.5681 42.9253 11.6122 42.9473 11.7612C42.997 12.0977 43.0577 12.4342 43.1128 12.7652C43.1459 12.9914 43.1735 13.2121 43.2066 13.4383C43.2618 13.8245 43.3225 14.2051 43.3776 14.5913C43.3887 14.6796 43.3997 14.7623 43.4107 14.8451Z" fill="black"/>
<path d="M17.101 15.1813C17.0735 15.1537 17.0183 15.1151 17.0017 15.0654C16.9521 14.8723 16.9135 14.6792 16.8749 14.4861C16.8142 14.1993 16.759 13.9124 16.7038 13.6255C16.6652 13.4269 16.6266 13.2228 16.588 13.0242C16.5439 12.8146 16.4942 12.6049 16.4501 12.3953C16.417 12.2463 16.3839 12.0919 16.3618 11.9429C16.3563 11.9098 16.4004 11.8436 16.4335 11.8326C16.7259 11.7498 17.0128 11.6781 17.3052 11.6064C17.4927 11.5622 17.5479 11.6009 17.5755 11.8271C17.6141 12.0974 17.6362 12.3677 17.6748 12.638C17.7189 12.9359 17.7796 13.2338 17.8237 13.5317C17.8679 13.8407 17.9065 14.1441 17.9506 14.453C17.9672 14.5799 18.0003 14.7013 18.0224 14.8227C18.0499 14.9661 18.0224 15.0323 17.89 15.0544C17.6417 15.104 17.3879 15.1371 17.101 15.1813Z" fill="black"/>
<path d="M51.3383 14.7292C51.3383 14.9168 51.3383 15.0547 51.3383 15.1926C51.3383 15.2698 51.3107 15.314 51.228 15.3195C50.9797 15.3305 50.7314 15.3471 50.4832 15.3636C50.3839 15.3691 50.3342 15.3415 50.3287 15.2367C50.3067 14.9885 50.2791 14.7402 50.2515 14.4975C50.2018 14.0782 50.1467 13.6644 50.0915 13.2452C50.086 13.2121 50.0915 13.1734 50.086 13.1348C50.0584 12.8811 50.0308 12.6273 50.0032 12.3735C49.9922 12.2742 49.9867 12.1694 49.9977 12.0701C50.0032 12.0315 50.0474 11.9708 50.0805 11.9653C50.4004 11.9156 50.7204 11.8715 51.0404 11.8273C51.1342 11.8163 51.1673 11.8605 51.1728 11.9487C51.2059 12.4894 51.239 13.03 51.2721 13.5762C51.2942 13.9789 51.3162 14.3761 51.3383 14.7292Z" fill="black"/>
</g>
<defs>
<clipPath id="clip0_101_90104">
<rect width="55.1679" height="30.229" fill="white" transform="translate(0.832031 0.778809)"/>
</clipPath>
</defs>
</svg>
