<svg width="38" height="38" viewBox="0 0 38 38" fill="none" xmlns="http://www.w3.org/2000/svg">
<path d="M12.0915 2.26709C6.67484 2.26709 2.26709 6.67484 2.26709 12.0915V25.6946C2.26709 31.1112 6.67484 35.519 12.0915 35.519H25.6946C31.1112 35.519 35.519 31.1112 35.519 25.6946V12.0915C35.519 6.67484 31.1112 2.26709 25.6946 2.26709H12.0915ZM12.0915 3.77854H25.6946C30.2943 3.77854 34.0075 7.49181 34.0075 12.0915V25.6946C34.0075 30.2943 30.2943 34.0075 25.6946 34.0075H12.0915C7.49181 34.0075 3.77854 30.2943 3.77854 25.6946V12.0915C3.77854 7.49181 7.49181 3.77854 12.0915 3.77854ZM27.9617 8.31289C27.5609 8.31289 27.1764 8.47213 26.893 8.75558C26.6095 9.03904 26.4503 9.42348 26.4503 9.82434C26.4503 10.2252 26.6095 10.6096 26.893 10.8931C27.1764 11.1765 27.5609 11.3358 27.9617 11.3358C28.3626 11.3358 28.7471 11.1765 29.0305 10.8931C29.314 10.6096 29.4732 10.2252 29.4732 9.82434C29.4732 9.42348 29.314 9.03904 29.0305 8.75558C28.7471 8.47213 28.3626 8.31289 27.9617 8.31289ZM18.893 10.5801C14.3109 10.5801 10.5801 14.3109 10.5801 18.893C10.5801 23.4752 14.3109 27.206 18.893 27.206C23.4752 27.206 27.206 23.4752 27.206 18.893C27.206 14.3109 23.4752 10.5801 18.893 10.5801ZM18.893 12.0915C22.6584 12.0915 25.6946 15.1277 25.6946 18.893C25.6946 22.6584 22.6584 25.6946 18.893 25.6946C15.1277 25.6946 12.0915 22.6584 12.0915 18.893C12.0915 15.1277 15.1277 12.0915 18.893 12.0915Z" fill="black"/>
</svg>
