<svg width="39" height="38" viewBox="0 0 39 38" fill="none" xmlns="http://www.w3.org/2000/svg">
<path d="M14.7326 4.53418C7.73917 4.53418 1.88525 9.34012 1.88525 15.4922C1.88525 18.8133 3.61811 21.6738 6.29562 23.6723L4.28822 29.7034L10.5554 25.8214C11.8514 26.2288 13.2831 26.4502 14.7326 26.4502C15.2964 26.4502 15.8455 26.4089 16.3916 26.3469C18.0418 29.5528 21.7821 31.7403 26.0685 31.7403C27.3703 31.7403 28.5748 31.4953 29.6936 31.1617L34.8685 34.0576L33.425 29.1071C35.3733 27.4893 36.6486 25.2369 36.6486 22.6716C36.6486 17.9778 32.5659 14.2346 27.391 13.6826C26.3696 8.40727 21.0234 4.53418 14.7326 4.53418ZM14.7326 6.04563C20.2559 6.04563 24.805 9.33422 25.8441 13.6117C20.1614 13.7151 15.4883 17.6501 15.4883 22.6716C15.4883 23.4421 15.6093 24.186 15.8189 24.8945C15.4617 24.924 15.0986 24.9388 14.7326 24.9388C13.2979 24.9388 11.8602 24.7203 10.6765 24.3011L10.337 24.183L7.03954 26.2229L8.07275 23.1203L7.60043 22.8015C4.97015 21.0243 3.3967 18.4738 3.3967 15.4922C3.3967 10.3084 8.427 6.04563 14.7326 6.04563ZM10.1982 10.58C9.36575 10.58 8.68678 11.259 8.68678 12.0914C8.68678 12.9239 9.36575 13.6029 10.1982 13.6029C11.0307 13.6029 11.7097 12.9239 11.7097 12.0914C11.7097 11.259 11.0307 10.58 10.1982 10.58ZM19.2669 10.58C18.4345 10.58 17.7555 11.259 17.7555 12.0914C17.7555 12.9239 18.4345 13.6029 19.2669 13.6029C20.0994 13.6029 20.7784 12.9239 20.7784 12.0914C20.7784 11.259 20.0994 10.58 19.2669 10.58ZM26.0685 15.1143C31.1667 15.1143 35.1372 18.5417 35.1372 22.6716C35.1372 24.9063 33.9977 26.8664 32.1172 28.2598L31.6951 28.5757L32.3829 30.9344L29.9268 29.5558L29.608 29.662C28.5511 30.0163 27.3437 30.2288 26.0685 30.2288C20.9703 30.2288 16.9998 26.8015 16.9998 22.6716C16.9998 18.5417 20.9703 15.1143 26.0685 15.1143ZM22.6677 19.6487C22.0625 19.6487 21.5341 20.1771 21.5341 20.7823C21.5341 21.3874 22.0625 21.9159 22.6677 21.9159C23.2729 21.9159 23.8013 21.3874 23.8013 20.7823C23.8013 20.1771 23.2729 19.6487 22.6677 19.6487ZM29.4692 19.6487C28.8641 19.6487 28.3356 20.1771 28.3356 20.7823C28.3356 21.3874 28.8641 21.9159 29.4692 21.9159C30.0744 21.9159 30.6028 21.3874 30.6028 20.7823C30.6028 20.1771 30.0744 19.6487 29.4692 19.6487Z" fill="black"/>
</svg>
